<?xml version="1.0" encoding="UTF-8"?><svg id="b" xmlns="http://www.w3.org/2000/svg" viewBox="0 0 24 24"><g id="c"><path d="m12,1.5c.99,0,1.95.4,2.65,1.1.7.7,1.1,1.66,1.1,2.65v.75h-7.5v-.75c0-.99.4-1.95,1.1-2.65.7-.7,1.66-1.1,2.65-1.1Zm5.25,4.5v-.75c0-1.39-.55-2.73-1.54-3.71-.98-.98-2.32-1.54-3.71-1.54s-2.73.55-3.71,1.54c-.98.98-1.54,2.32-1.54,3.71v.75H1.5v15c0,.8.32,1.56.88,2.12.56.56,1.33.88,2.12.88h15c.8,0,1.56-.32,2.12-.88.56-.56.88-1.33.88-2.12V6h-5.25Zm-14.25,1.5h18v13.5c0,.4-.16.78-.44,1.06s-.66.44-1.06.44H4.5c-.4,0-.78-.16-1.06-.44s-.44-.66-.44-1.06V7.5Z" class="icon-fg"/><rect width="24" height="24" class="icon-bg"/></g></svg>