<?xml version="1.0" encoding="UTF-8"?><svg id="b" xmlns="http://www.w3.org/2000/svg" viewBox="0 0 24 24"><g id="c"><path d="m.58,11.39c-.13-.07-.25-.17-.34-.29-.09-.12-.16-.26-.2-.4-.04-.15-.05-.3-.03-.45.02-.15.07-.29.15-.42l1.71-2.96c.13-.23.32-.39.54-.48L11.36,1.36c.18-.14.41-.21.65-.21s.47.07.65.21l9.03,5.07c.22.11.4.3.5.53l1.66,2.88c.32.55.13,1.25-.41,1.55l-1.14.66v5.67c0,.43-.24.81-.61,1.01l-9.03,5.07c-.18.14-.41.21-.65.21s-.47-.07-.65-.21l-9.03-5.07c-.18-.1-.34-.24-.44-.42-.11-.18-.16-.38-.16-.59v-6.33c-.34.19-.78.21-1.14,0ZM12.01,3.61v7.65l6.81-3.83-6.81-3.83Zm-8,13.44l6.86,3.86v-7.67l-6.86-3.85v7.65Zm16,0v-3.68l-5.71,3.31c-.38.21-.8.19-1.14.01v4.22l6.86-3.86Zm-5.88-2.91l7.18-4.15-.66-1.15-7.18,4.15.66,1.15Z" class="icon-fg"/><rect x="0" width="24" height="24" class="icon-bg"/></g></svg>