<?xml version="1.0" encoding="UTF-8"?><svg id="b" xmlns="http://www.w3.org/2000/svg" viewBox="0 0 24 24"><g id="c"><path d="m21.17,13.17c.11-.79.11-1.59,0-2.37l2.59-1.95c.12-.09.2-.21.23-.36.03-.14,0-.29-.07-.42l-2.45-4.16c-.13-.27-.48-.37-.77-.27l-3.07,1.2c-.64-.45-1.31-.85-2.08-1.17l-.45-3.17c-.03-.14-.1-.27-.22-.36-.11-.09-.25-.14-.4-.14h-4.93c-.32,0-.59.21-.64.51l-.45,3.17c-.77.32-1.44.72-2.08,1.17l-3.07-1.2c-.27-.11-.64,0-.75.27L.08,8.08c-.16.27-.08.59.16.77l2.59,1.95c-.03.4-.08.8-.08,1.2s.05.77.08,1.17L.24,15.15c-.12.09-.2.21-.23.36-.03.14,0,.29.07.42l2.48,4.16c.11.27.48.35.75.27l3.07-1.23c.64.48,1.31.88,2.08,1.2l.45,3.17c.05.29.32.51.64.51h4.93c.29,0,.56-.21.61-.51l.45-3.17c.77-.32,1.44-.72,2.08-1.2l3.07,1.23c.29.08.64,0,.77-.27l2.45-4.16c.07-.13.1-.27.07-.42-.03-.14-.11-.27-.23-.36l-2.59-1.97Zm-9.17,2.83c-2.21,0-4-1.79-4-4s1.79-4,4-4,4,1.79,4,4-1.79,4-4,4Z" class="icon-fg"/><rect x="0" width="24" height="24" class="icon-bg"/></g></svg>