<?xml version="1.0" encoding="UTF-8"?><svg id="b" xmlns="http://www.w3.org/2000/svg" viewBox="0 0 24 24"><g id="c"><path d="m10,24v-5.68c-.63.23-1.29.35-2,.35-3.33,0-6-2.67-6-6,0-1.69.67-3.21,1.81-4.31-.31-.72-.48-1.52-.48-2.36C3.33,2.67,6,0,9.33,0c2.08,0,3.92,1.07,5,2.67h.33c.96,0,1.92.19,2.81.56.89.37,1.7.91,2.38,1.59.68.68,1.22,1.49,1.59,2.38.37.89.56,1.84.56,2.81s-.19,1.92-.56,2.81c-.37.89-.91,1.7-1.59,2.38-.68.68-1.49,1.22-2.38,1.59-.89.37-1.84.56-2.81.56-.67,0-1.33-.09-2-.28v6.95h-2.67Z" class="icon-fg"/><rect width="24" height="24" class="icon-bg"/></g></svg>