<?xml version="1.0" encoding="UTF-8"?><svg id="b" xmlns="http://www.w3.org/2000/svg" viewBox="0 0 24 24"><g id="c"><path d="m3.67,1.19c-.52,0-1.01.17-1.46.5-.46.34-.72.77-.84,1.3L.13,8.29c-.3,1.31-.06,2.41.7,3.39.14.14.29.29.42.41.71.68,1.49,1.12,2.62,1.12s2.03-.49,2.7-1.14c.76.74,1.67,1.14,2.8,1.14,1.01,0,1.97-.44,2.64-1.12.82.76,1.74,1.12,2.76,1.12s1.93-.4,2.69-1.14c.68.68,1.58,1.14,2.73,1.14s1.95-.42,2.63-1.13c.11-.11.22-.23.34-.35.79-.98,1.03-2.13.73-3.43l-1.24-5.3c-.16-.53-.43-.96-.88-1.3-.4-.33-.91-.51-1.43-.5m-.06,2.37l1.3,5.3c.11.52,0,.98-.34,1.4-.3.37-.67.54-1.13.54-.37,0-.7-.12-.96-.41-.26-.28-.41-.6-.44-.98l-.73-5.81m-14.3,0h2.37l-.73,5.81c-.14.95-.61,1.39-1.4,1.39-.49,0-.86-.17-1.13-.54-.34-.42-.44-.89-.34-1.4m6.03-5.26h2.34v5.64c0,.42-.13.78-.43,1.1-.3.31-.67.46-1.13.46-.41,0-.76-.14-1.03-.49-.28-.35-.41-.71-.41-1.12v-.19m5.4-5.4h2.34l.66,5.4c.1.5,0,.92-.35,1.28-.31.36-.72.52-1.21.52-.37,0-.71-.14-1.01-.46-.28-.3-.44-.69-.43-1.1M1.19,14.44v5.97c0,1.33,1.07,2.4,2.4,2.4h16.81c.64,0,1.25-.25,1.7-.7.45-.45.7-1.06.7-1.7v-5.94c-.66.7-1.5,1.09-2.4,1.14-1.2.04-2.1-.31-2.95-1.14-.72.72-1.68,1.14-2.69,1.14-1.08,0-2.04-.43-2.76-1.12-.68.68-1.62,1.12-2.67,1.12s-2.05-.42-2.77-1.14c-.7.71-1.64,1.14-2.69,1.14s-1.89-.42-2.68-1.16Z" class="icon-fg"/><rect width="24" height="24" class="icon-bg"/></g></svg>