<svg viewBox="0 0 640 640" fill="none" xmlns="http://www.w3.org/2000/svg">
<g clip-path="url(#clip0_10_13)">
<path d="M52.4301 216.59V540.31L320 640V326.55L52.4301 216.59Z" fill="#A09960"/>
<path d="M587.57 216.59V540.31L320 640V326.55L587.57 216.59Z" fill="#75735A"/>
<path d="M320 107.92L52.4301 216.59L320 326.55L587.57 216.59L320 107.92Z" fill="#CABF58"/>
<path d="M382.98 62.98L320 0L257.02 62.98C222.23 97.77 222.23 154.16 257.02 188.95C270.73 202.66 287.8 210.94 305.58 213.84V250.98C305.58 258.95 312.04 265.41 320.01 265.41C327.98 265.41 334.44 258.95 334.44 250.98V213.84C352.22 210.94 369.29 202.65 383 188.95C417.78 154.16 417.78 97.77 383 62.98H382.98Z" fill="#F5E242"/>
<path d="M283.94 340.56L261.01 317.63C270.19 304.86 275.62 289.21 275.62 272.27C275.62 229.31 240.79 194.48 197.83 194.48H120.04V272.27C120.04 315.23 154.87 350.06 197.83 350.06C214.76 350.06 230.42 344.63 243.19 335.45L266.12 358.38C268.58 360.84 271.8 362.07 275.03 362.07C278.26 362.07 281.48 360.84 283.94 358.38C288.86 353.46 288.86 345.48 283.94 340.56Z" fill="#75735A"/>
<path d="M443.05 196.25C400.58 196.25 366.15 230.68 366.15 273.15C366.15 289.84 371.48 305.27 380.51 317.87L357.82 340.56C352.9 345.48 352.9 353.46 357.82 358.38C360.28 360.84 363.5 362.07 366.73 362.07C369.96 362.07 373.18 360.84 375.64 358.38L398.33 335.69C410.93 344.72 426.37 350.05 443.05 350.05C485.52 350.05 519.95 315.62 519.95 273.15V196.25H443.05Z" fill="#A09960"/>
<path d="M47.71 537.29L14.27 467.09C10.02 458.16 9.71996 447.91 13.5 438.77C20.13 422.72 30.56 397.51 35.08 386.61C39.84 375.16 67.37 376.02 69.37 396.61C70.26 405.82 71.74 424.93 71.74 424.93C71.74 424.93 140.32 402.32 163.18 394.79C179.82 389.31 192.25 417.16 177.75 425.52C163.37 433.81 120.7 459.47 120.7 459.47C120.7 459.47 172.39 446.78 189.66 442.75C205.71 439.01 215.55 470.09 200.75 475.66C184.84 481.65 137.04 499.5 137.04 499.5C137.04 499.5 172.64 500.23 184.51 500.36C198.57 500.52 203 527.27 186.54 529.85C157.25 534.45 69.43 548.67 69.43 548.67C60.46 550.11 51.61 545.47 47.7 537.26L47.71 537.29Z" fill="#F5E242"/>
<path d="M592.29 537.29L625.73 467.09C629.98 458.16 630.28 447.91 626.5 438.77C619.87 422.72 609.44 397.51 604.92 386.61C600.16 375.16 572.63 376.02 570.63 396.61C569.74 405.82 568.26 424.93 568.26 424.93C568.26 424.93 499.68 402.32 476.82 394.79C460.18 389.31 447.75 417.16 462.25 425.52C476.63 433.81 519.3 459.47 519.3 459.47C519.3 459.47 467.61 446.78 450.34 442.75C434.29 439.01 424.45 470.09 439.25 475.66C455.16 481.65 502.96 499.5 502.96 499.5C502.96 499.5 467.36 500.23 455.49 500.36C441.43 500.52 437 527.27 453.46 529.85C482.75 534.45 570.57 548.67 570.57 548.67C579.54 550.11 588.39 545.47 592.3 537.26L592.29 537.29Z" fill="#F5E242"/>
</g>
<defs>
<clipPath id="clip0_10_13">
<rect width="640" height="640" fill="white"/>
</clipPath>
</defs>
</svg>
